<svg xmlns="http://www.w3.org/2000/svg" data-name="Layer 1" width="888" height="710.8" viewBox="0 0 888 710.8" xmlns:xlink="http://www.w3.org/1999/xlink"><title>shopping list</title><path d="M464.03,689.92c0,11.53-23.57,22.51-66.49,31.76-43.61,9.4-103.49,15.05-168.42,15.05-64.48,0-124-5.53-167.47-14.77-43.8-9.36-67.62-20.49-67.62-32.04,0-11.92,24.59-23.3,69.16-32.54,43.22-9,103.79-14.37,166.93-14.37,62.58,0,122.68,5.23,165.75,14.09C439.69,666.92,464.03,678.1,464.03,689.92Z" transform="translate(-156 -94.6)" fill="#3f3d56"/><ellipse cx="108.03" cy="602.81" rx="55.5" ry="10.23" fill="#3f3d56"/><path d="M665.03,599.92c0,11.53-23.57,22.51-66.49,31.76-43.61,9.4-103.49,15.05-168.42,15.05-64.48,0-124-5.53-167.47-14.77-43.8-9.36-67.62-20.49-67.62-32.04,0-11.92,24.59-23.3,69.16-32.54,43.22-9,103.79-14.37,166.93-14.37,62.58,0,122.68,5.23,165.75,14.09C640.69,576.92,665.03,588.1,665.03,599.92Z" transform="translate(-156 -94.6)" fill="#3f3d56"/><ellipse cx="309.03" cy="512.81" rx="55.5" ry="10.23" fill="#3f3d56"/><path d="M861.03,509.92c0,11.53-23.57,22.51-66.49,31.76-43.61,9.4-103.49,15.05-168.42,15.05-64.48,0-124-5.53-167.47-14.77-43.8-9.36-67.62-20.49-67.62-32.04,0-11.92,24.59-23.3,69.16-32.54,43.22-9,103.79-14.37,166.93-14.37,62.58,0,122.68,5.23,165.75,14.09C836.69,486.92,861.03,498.1,861.03,509.92Z" transform="translate(-156 -94.6)" fill="#3f3d56"/><ellipse cx="505.03" cy="422.81" rx="55.5" ry="10.23" fill="#3f3d56"/><path d="M1044,94.6H156a42.979,42.979,0,0,0-43,43V804.4a42.979,42.979,0,0,0,43,43H1044a42.979,42.979,0,0,0,43-43V137.6A42.979,42.979,0,0,0,1044,94.6Zm0,709.8H156V137.6H1044Z" transform="translate(-156 -94.6)" fill="#3f3d56"/><rect x="150" y="233.8" width="888" height="2" fill="#3f3d56"/><circle cx="167" cy="178.8" r="17" fill="#6c63ff"/><circle cx="209" cy="178.8" r="17" fill="#6c63ff"/><circle cx="251" cy="178.8" r="17" fill="#6c63ff"/><rect x="300" y="160.8" width="688" height="36" fill="#6c63ff"/><rect x="300" y="264.8" width="688" height="36" fill="#e6e6e6"/><rect x="300" y="368.8" width="688" height="36" fill="#e6e6e6"/><rect x="300" y="472.8" width="688" height="36" fill="#e6e6e6"/><rect x="300" y="576.8" width="688" height="36" fill="#e6e6e6"/><rect x="300" y="680.8" width="688" height="36" fill="#e6e6e6"/></svg>
